<svg width="141" height="141" viewBox="0 0 141 141" fill="none" xmlns="http://www.w3.org/2000/svg">
<rect x="11.6875" y="11.5" width="118" height="118" rx="59" fill="#FDB137"/>
<path d="M51.2975 45.0601L53.1875 53.1101L51.2975 61.1251L58.3325 65.4651L62.6375 72.5001L70.6875 70.6101L78.7375 72.5001L83.0425 65.4651L90.0775 61.1251L88.1875 53.1101L90.0775 45.0601L83.0775 40.7201L78.7375 33.6851L70.6875 35.6101L62.6725 33.7201L58.2975 40.7201L51.2975 45.0601ZM70.7225 67.2501C67.0094 67.2501 63.4485 65.7751 60.823 63.1496C58.1975 60.524 56.7225 56.9631 56.7225 53.2501C56.7225 49.537 58.1975 45.9761 60.823 43.3506C63.4485 40.7251 67.0094 39.2501 70.7225 39.2501C78.4225 39.2501 84.6875 45.5151 84.6875 53.2151C84.6875 60.9851 78.4225 67.2501 70.7225 67.2501ZM70.6525 63.7501C64.8425 63.7501 60.1875 59.0601 60.1875 53.2501C60.1875 47.4751 64.8425 42.7501 70.6525 42.7501C76.4625 42.7501 81.1875 47.4751 81.1875 53.2501C81.1875 59.0601 76.4625 63.7501 70.6525 63.7501ZM84.0925 67.6001L79.6125 75.4401L72.3325 73.7951L81.1875 94.2001L86.0875 86.5001H94.8375L84.0925 67.6001ZM57.1425 67.8451L61.5175 75.7201L68.9725 73.9351L60.1875 94.2001L55.2875 86.5001H46.5375L57.1425 67.8451Z" fill="white"/>
<rect x="1.1875" y="1" width="139" height="139" rx="69.5" stroke="#2D4849"/>
</svg>
