<svg width="70" height="70" viewBox="0 0 70 70" fill="none" xmlns="http://www.w3.org/2000/svg">
<rect x="0.5" y="0.5" width="69" height="69" rx="34.5" fill="white"/>
<path d="M49.5 41.1501V44.9001C49.5014 45.2482 49.4301 45.5928 49.2906 45.9118C49.1512 46.2308 48.9466 46.5171 48.6901 46.7525C48.4336 46.9878 48.1307 47.167 47.8009 47.2785C47.4712 47.39 47.1217 47.4315 46.775 47.4001C42.9286 46.9822 39.2338 45.6678 35.9875 43.5626C32.9673 41.6435 30.4067 39.0828 28.4875 36.0626C26.375 32.8016 25.0603 29.0889 24.65 25.2251C24.6188 24.8795 24.6599 24.5311 24.7706 24.2022C24.8814 23.8732 25.0595 23.571 25.2935 23.3146C25.5275 23.0583 25.8123 22.8535 26.1297 22.7133C26.4472 22.573 26.7904 22.5004 27.1375 22.5001H30.8875C31.4941 22.4942 32.0822 22.709 32.5422 23.1045C33.0022 23.5001 33.3026 24.0494 33.3875 24.6501C33.5458 25.8502 33.8393 27.0285 34.2625 28.1626C34.4307 28.61 34.4671 29.0963 34.3674 29.5637C34.2677 30.0312 34.0361 30.4603 33.7 30.8001L32.1125 32.3876C33.892 35.5171 36.4831 38.1082 39.6125 39.8876L41.2 38.3001C41.5399 37.964 41.969 37.7324 42.4364 37.6327C42.9039 37.533 43.3901 37.5694 43.8375 37.7376C44.9716 38.1608 46.1499 38.4543 47.35 38.6126C47.9572 38.6983 48.5118 39.0041 48.9082 39.472C49.3046 39.9399 49.5152 40.5371 49.5 41.1501Z" stroke="black" stroke-width="2" stroke-linecap="round" stroke-linejoin="round"/>
<rect x="0.5" y="0.5" width="69" height="69" rx="34.5" stroke="#E6F0F0"/>
</svg>
