<svg width="70" height="70" viewBox="0 0 70 70" fill="none" xmlns="http://www.w3.org/2000/svg">
<rect x="0.5" y="0.5" width="69" height="69" rx="34.5" fill="white"/>
<path d="M35 35C35.6875 35 36.2762 34.755 36.7663 34.265C37.2554 33.7758 37.5 33.1875 37.5 32.5C37.5 31.8125 37.2554 31.2238 36.7663 30.7337C36.2762 30.2446 35.6875 30 35 30C34.3125 30 33.7242 30.2446 33.235 30.7337C32.745 31.2238 32.5 31.8125 32.5 32.5C32.5 33.1875 32.745 33.7758 33.235 34.265C33.7242 34.755 34.3125 35 35 35ZM35 44.1875C37.5417 41.8542 39.4271 39.7342 40.6562 37.8275C41.8854 35.9217 42.5 34.2292 42.5 32.75C42.5 30.4792 41.7758 28.6196 40.3275 27.1712C38.88 25.7238 37.1042 25 35 25C32.8958 25 31.1196 25.7238 29.6712 27.1712C28.2238 28.6196 27.5 30.4792 27.5 32.75C27.5 34.2292 28.1146 35.9217 29.3438 37.8275C30.5729 39.7342 32.4583 41.8542 35 44.1875ZM35 47.5C31.6458 44.6458 29.1408 41.9946 27.485 39.5462C25.8283 37.0988 25 34.8333 25 32.75C25 29.625 26.0054 27.1354 28.0163 25.2812C30.0263 23.4271 32.3542 22.5 35 22.5C37.6458 22.5 39.9738 23.4271 41.9837 25.2812C43.9946 27.1354 45 29.625 45 32.75C45 34.8333 44.1721 37.0988 42.5163 39.5462C40.8596 41.9946 38.3542 44.6458 35 47.5Z" fill="black"/>
<rect x="0.5" y="0.5" width="69" height="69" rx="34.5" stroke="#E6F0F0"/>
</svg>
