<svg width="96" height="96" viewBox="0 0 96 96" fill="none" xmlns="http://www.w3.org/2000/svg">
<g filter="url(#filter0_d_0_1)">
<circle cx="48" cy="44" r="40" fill="#E6F0F0"/>
</g>
<path d="M64 54C65.0609 54 66.0783 53.5786 66.8284 52.8284C67.5786 52.0783 68 51.0609 68 50V28C68 26.9391 67.5786 25.9217 66.8284 25.1716C66.0783 24.4214 65.0609 24 64 24H42.92C43.62 25.22 44 26.6 44 28H64V50H46V54M54 34V38H42V64H38V52H34V64H30V48H27V38C27 36.9391 27.4214 35.9217 28.1716 35.1716C28.9217 34.4214 29.9391 34 31 34H54ZM40 28C40 29.0609 39.5786 30.0783 38.8284 30.8284C38.0783 31.5786 37.0609 32 36 32C34.9391 32 33.9217 31.5786 33.1716 30.8284C32.4214 30.0783 32 29.0609 32 28C32 26.9391 32.4214 25.9217 33.1716 25.1716C33.9217 24.4214 34.9391 24 36 24C37.0609 24 38.0783 24.4214 38.8284 25.1716C39.5786 25.9217 40 26.9391 40 28Z" fill="#FDB137"/>
<defs>
<filter id="filter0_d_0_1" x="0" y="0" width="96" height="96" filterUnits="userSpaceOnUse" color-interpolation-filters="sRGB">
<feFlood flood-opacity="0" result="BackgroundImageFix"/>
<feColorMatrix in="SourceAlpha" type="matrix" values="0 0 0 0 0 0 0 0 0 0 0 0 0 0 0 0 0 0 127 0" result="hardAlpha"/>
<feOffset dy="4"/>
<feGaussianBlur stdDeviation="4"/>
<feComposite in2="hardAlpha" operator="out"/>
<feColorMatrix type="matrix" values="0 0 0 0 0 0 0 0 0 0 0 0 0 0 0 0 0 0 0.08 0"/>
<feBlend mode="normal" in2="BackgroundImageFix" result="effect1_dropShadow_0_1"/>
<feBlend mode="normal" in="SourceGraphic" in2="effect1_dropShadow_0_1" result="shape"/>
</filter>
</defs>
</svg>
