<svg width="96" height="96" viewBox="0 0 96 96" fill="none" xmlns="http://www.w3.org/2000/svg">
<g filter="url(#filter0_d_0_1)">
<circle cx="48" cy="44" r="40" fill="#E6F0F0"/>
</g>
<path d="M48 21L52.7983 23.484L58.1401 24.2947L60.5608 29.1248L64.4047 32.9198L63.525 38.25L64.4047 43.5802L60.5608 47.3752L58.1401 52.2052L52.7983 53.016L48 55.5L43.2016 53.016L37.8598 52.2052L35.4391 47.3752L31.5952 43.5802L32.475 38.25L31.5952 32.9198L35.4391 29.1248L37.8598 24.2947L43.2016 23.484L48 21Z" fill="#FDB137"/>
<path d="M36.5 54.9077V67L48 64.125L59.5 67V54.9077L53.6983 55.7875L48 58.7372L42.3018 55.7875L36.5 54.9077Z" fill="#FDB137"/>
<defs>
<filter id="filter0_d_0_1" x="0" y="0" width="96" height="96" filterUnits="userSpaceOnUse" color-interpolation-filters="sRGB">
<feFlood flood-opacity="0" result="BackgroundImageFix"/>
<feColorMatrix in="SourceAlpha" type="matrix" values="0 0 0 0 0 0 0 0 0 0 0 0 0 0 0 0 0 0 127 0" result="hardAlpha"/>
<feOffset dy="4"/>
<feGaussianBlur stdDeviation="4"/>
<feComposite in2="hardAlpha" operator="out"/>
<feColorMatrix type="matrix" values="0 0 0 0 0 0 0 0 0 0 0 0 0 0 0 0 0 0 0.08 0"/>
<feBlend mode="normal" in2="BackgroundImageFix" result="effect1_dropShadow_0_1"/>
<feBlend mode="normal" in="SourceGraphic" in2="effect1_dropShadow_0_1" result="shape"/>
</filter>
</defs>
</svg>
