<svg width="171" height="46" viewBox="0 0 171 46" fill="none" xmlns="http://www.w3.org/2000/svg">
<path fill-rule="evenodd" clip-rule="evenodd" d="M8.2616 26.0286C8.2616 25.7539 8.48429 25.5312 8.75898 25.5312C9.03367 25.5312 9.25635 25.7539 9.25635 26.0286V33.8039C9.83962 34.04 10.2511 34.6118 10.2511 35.2798C10.2511 35.9359 9.85407 36.4992 9.2872 36.7428L10.2511 42.0441L9.25635 42.0441L8.65947 42.0441L8.2616 42.0441L7.06787 42.0441L8.23036 36.8129C7.55978 36.6256 7.06787 36.0101 7.06787 35.2798C7.06787 34.5381 7.57512 33.915 8.2616 33.7383V26.0286Z" fill="#FDB137"/>
<path d="M50.4184 30.9485C50.4184 39.025 43.8712 45.5722 35.7947 45.5722C27.7182 45.5722 21.1709 39.025 21.1709 30.9485C21.1709 22.872 27.7182 16.3247 35.7947 16.3247C43.8712 16.3247 50.4184 22.872 50.4184 30.9485Z" fill="#FDB137"/>
<path d="M47.1157 30.216C47.1157 30.8475 47.0763 31.5052 46.9973 32.1893H31.7243C31.8295 33.5574 32.2637 34.6098 33.0267 35.3465C33.816 36.0569 34.7763 36.412 35.9076 36.412C37.5915 36.412 38.7623 35.7017 39.42 34.2809H46.6027C46.2343 35.728 45.5634 37.0303 44.59 38.188C43.6428 39.3456 42.4457 40.2533 40.9986 40.9111C39.5516 41.5688 37.9335 41.8977 36.1444 41.8977C33.987 41.8977 32.0663 41.4373 30.3825 40.5164C28.6986 39.5956 27.3831 38.2801 26.436 36.5699C25.4888 34.8597 25.0152 32.8602 25.0152 30.5712C25.0152 28.2822 25.4757 26.2826 26.3965 24.5725C27.3437 22.8623 28.6592 21.5468 30.343 20.626C32.0269 19.7051 33.9607 19.2447 36.1444 19.2447C38.2755 19.2447 40.1699 19.692 41.8274 20.5865C43.4849 21.4811 44.7741 22.7571 45.695 24.4146C46.6421 26.0722 47.1157 28.006 47.1157 30.216ZM40.2093 28.4401C40.2093 27.2824 39.8147 26.3616 39.0254 25.6775C38.2361 24.9935 37.2494 24.6514 36.0655 24.6514C34.9341 24.6514 33.9738 24.9803 33.1845 25.6381C32.4215 26.2958 31.9479 27.2298 31.7638 28.4401H40.2093Z" fill="white"/>
<path d="M1 25.6326L21.0516 5.32852L51.4268 1.42773" stroke="#2D4849" stroke-width="1.00854"/>
<path d="M21.4392 6.88874L2.0083 26.1368L14.8626 23.4716L41.6673 10.9358L51.9308 2.94043L21.4392 6.88874Z" fill="#2D4849"/>
<path d="M27.0046 12.3066C20.0885 14.8143 16.0802 19.0397 14.7702 21.0733C14.6708 21.2277 14.6735 21.4229 14.7674 21.5807L18.608 28.0389C18.7869 28.3399 19.2109 28.3717 19.4419 28.1086C25.6494 21.0409 37.0189 17.9356 42.6635 17.1518C43.0059 17.1042 43.2048 16.739 43.0568 16.4267L39.908 9.78005C39.8347 9.6253 39.6879 9.51695 39.517 9.50689C37.9803 9.41649 33.766 9.85505 27.0046 12.3066Z" fill="#2D4849" stroke="#F9F8F3" stroke-width="1.00854"/>
<path d="M60.7924 32.7348H65.4658V35.4888H57.2247V20.8425H60.7924V32.7348ZM78.1418 29.48C78.1418 29.8139 78.1209 30.1616 78.0792 30.5232H70.005C70.0606 31.2465 70.2901 31.8029 70.6935 32.1923C71.1108 32.5679 71.6184 32.7556 72.2165 32.7556C73.1067 32.7556 73.7257 32.3801 74.0734 31.629H77.8706C77.6758 32.394 77.3212 33.0825 76.8065 33.6945C76.3058 34.3065 75.6729 34.7864 74.9079 35.1341C74.1429 35.4818 73.2875 35.6557 72.3417 35.6557C71.2012 35.6557 70.1858 35.4123 69.2956 34.9255C68.4054 34.4386 67.71 33.7432 67.2093 32.8391C66.7085 31.935 66.4582 30.8779 66.4582 29.6678C66.4582 28.4577 66.7016 27.4006 67.1884 26.4965C67.6891 25.5924 68.3846 24.897 69.2748 24.4102C70.1649 23.9234 71.1873 23.6799 72.3417 23.6799C73.4683 23.6799 74.4698 23.9164 75.3461 24.3893C76.2223 24.8622 76.9039 25.5368 77.3907 26.4131C77.8914 27.2894 78.1418 28.3117 78.1418 29.48ZM74.4907 28.5412C74.4907 27.9292 74.282 27.4424 73.8648 27.0807C73.4475 26.7191 72.9259 26.5383 72.3 26.5383C71.7019 26.5383 71.1942 26.7121 70.7769 27.0599C70.3736 27.4076 70.1232 27.9014 70.0258 28.5412H74.4907ZM79.3146 29.6469C79.3146 28.4508 79.5371 27.4006 79.9822 26.4965C80.4412 25.5924 81.0602 24.897 81.8391 24.4102C82.618 23.9234 83.4873 23.6799 84.447 23.6799C85.2677 23.6799 85.984 23.8469 86.596 24.1807C87.2219 24.5145 87.7018 24.9526 88.0356 25.4951V23.8469H91.6033V35.4888H88.0356V33.8405C87.6878 34.383 87.201 34.8211 86.5751 35.155C85.9631 35.4888 85.2468 35.6557 84.4262 35.6557C83.4803 35.6557 82.618 35.4123 81.8391 34.9255C81.0602 34.4247 80.4412 33.7223 79.9822 32.8182C79.5371 31.9002 79.3146 30.8431 79.3146 29.6469ZM88.0356 29.6678C88.0356 28.7776 87.7852 28.0752 87.2845 27.5606C86.7977 27.0459 86.1996 26.7886 85.4902 26.7886C84.7808 26.7886 84.1758 27.0459 83.6751 27.5606C83.1882 28.0613 82.9448 28.7568 82.9448 29.6469C82.9448 30.5371 83.1882 31.2465 83.6751 31.775C84.1758 32.2897 84.7808 32.547 85.4902 32.547C86.1996 32.547 86.7977 32.2897 87.2845 31.775C87.7852 31.2604 88.0356 30.558 88.0356 29.6678ZM97.752 25.7872C98.1693 25.1474 98.6909 24.6466 99.3168 24.285C99.9427 23.9094 100.638 23.7217 101.403 23.7217V27.498H100.423C99.5324 27.498 98.8647 27.6927 98.4196 28.0822C97.9745 28.4577 97.752 29.1254 97.752 30.0851V35.4888H94.1843V23.8469H97.752V25.7872ZM110.202 23.7217C111.565 23.7217 112.65 24.1668 113.457 25.0569C114.277 25.9332 114.688 27.1433 114.688 28.6872V35.4888H111.141V29.1671C111.141 28.3882 110.939 27.7831 110.536 27.3519C110.133 26.9208 109.59 26.7052 108.909 26.7052C108.227 26.7052 107.685 26.9208 107.281 27.3519C106.878 27.7831 106.676 28.3882 106.676 29.1671V35.4888H103.108V23.8469H106.676V25.3908C107.038 24.8761 107.525 24.4728 108.137 24.1807C108.749 23.8747 109.437 23.7217 110.202 23.7217ZM118.961 22.6368C118.335 22.6368 117.821 22.4559 117.417 22.0943C117.028 21.7188 116.833 21.2598 116.833 20.7173C116.833 20.1609 117.028 19.7019 117.417 19.3403C117.821 18.9648 118.335 18.777 118.961 18.777C119.573 18.777 120.074 18.9648 120.463 19.3403C120.867 19.7019 121.068 20.1609 121.068 20.7173C121.068 21.2598 120.867 21.7188 120.463 22.0943C120.074 22.4559 119.573 22.6368 118.961 22.6368ZM120.735 23.8469V35.4888H117.167V23.8469H120.735ZM130.414 23.7217C131.777 23.7217 132.862 24.1668 133.668 25.0569C134.489 25.9332 134.899 27.1433 134.899 28.6872V35.4888H131.353V29.1671C131.353 28.3882 131.151 27.7831 130.748 27.3519C130.344 26.9208 129.802 26.7052 129.12 26.7052C128.439 26.7052 127.896 26.9208 127.493 27.3519C127.089 27.7831 126.888 28.3882 126.888 29.1671V35.4888H123.32V23.8469H126.888V25.3908C127.249 24.8761 127.736 24.4728 128.348 24.1807C128.96 23.8747 129.649 23.7217 130.414 23.7217ZM141.802 23.6799C142.622 23.6799 143.339 23.8469 143.951 24.1807C144.577 24.5145 145.056 24.9526 145.39 25.4951V23.8469H148.958V35.4679C148.958 36.5389 148.742 37.5056 148.311 38.368C147.894 39.2442 147.247 39.9397 146.371 40.4543C145.508 40.969 144.43 41.2263 143.137 41.2263C141.412 41.2263 140.014 40.816 138.943 39.9953C137.872 39.1886 137.26 38.0898 137.107 36.6989H140.633C140.745 37.144 141.009 37.4917 141.426 37.742C141.843 38.0063 142.358 38.1385 142.97 38.1385C143.707 38.1385 144.291 37.9229 144.723 37.4917C145.168 37.0744 145.39 36.3998 145.39 35.4679V33.8197C145.042 34.3621 144.563 34.8072 143.951 35.155C143.339 35.4888 142.622 35.6557 141.802 35.6557C140.842 35.6557 139.973 35.4123 139.194 34.9255C138.415 34.4247 137.796 33.7223 137.337 32.8182C136.892 31.9002 136.669 30.8431 136.669 29.6469C136.669 28.4508 136.892 27.4006 137.337 26.4965C137.796 25.5924 138.415 24.897 139.194 24.4102C139.973 23.9234 140.842 23.6799 141.802 23.6799ZM145.39 29.6678C145.39 28.7776 145.14 28.0752 144.639 27.5606C144.152 27.0459 143.554 26.7886 142.845 26.7886C142.135 26.7886 141.53 27.0459 141.03 27.5606C140.543 28.0613 140.299 28.7568 140.299 29.6469C140.299 30.5371 140.543 31.2465 141.03 31.775C141.53 32.2897 142.135 32.547 142.845 32.547C143.554 32.547 144.152 32.2897 144.639 31.775C145.14 31.2604 145.39 30.558 145.39 29.6678Z" fill="#2D4849"/>
<path d="M153.257 13.4878C151.209 13.0109 148.938 16.3091 148.158 17.8191C146.821 10.2293 154.308 9.16494 157.939 8.52063C161.074 7.96432 162.885 5.73905 163.749 4.42773C165.713 16.2296 155.723 20.6801 148.994 19.1304C149.094 16.6826 151.878 14.3487 153.257 13.4878Z" fill="#70E304"/>
</svg>
